<svg width="253" height="102" viewBox="0 0 253 102" fill="none" xmlns="http://www.w3.org/2000/svg">
<path d="M96.9956 101.012C73.2956 98.9118 42.7956 91.5118 28.4956 84.4118C16.4956 78.3119 5.29556 68.6118 1.89556 61.2118C-0.804444 55.2118 -0.604444 46.7118 2.39556 40.7118C9.09556 27.6118 30.6956 15.1118 59.6956 7.61185C112.496 -5.98815 186.296 -0.888153 225.496 19.1118C239.696 26.4118 246.896 32.5118 251.396 41.3118C253.496 45.6118 253.496 56.6118 251.396 60.9118C242.396 78.6119 214.896 92.0119 173.796 98.7119C162.796 100.412 155.496 100.912 130.996 101.112C114.796 101.212 99.4956 101.212 96.9956 101.012ZM80.6956 67.7118C79.9956 55.7118 79.9956 55.7118 82.7956 55.3118C84.2956 55.1118 82.0956 54.9118 77.9956 54.9118C73.8956 54.9118 71.6956 55.1118 73.2956 55.3118C74.7956 55.5118 75.9956 56.4118 75.9956 57.2118C75.9956 58.0118 76.6956 58.6118 77.4956 58.6118C78.6956 58.6118 78.9956 60.4118 78.9956 68.4118C78.9956 77.3118 79.3956 79.6118 80.7956 79.6118C81.0956 79.6118 80.9956 74.2118 80.6956 67.7118ZM117.396 65.3118C116.496 64.8118 115.596 64.7118 115.296 65.0118C114.896 65.3118 115.196 65.6118 115.796 65.6118C116.496 65.6118 116.996 66.4118 116.996 67.4118C116.996 68.8118 117.196 68.9118 117.996 67.6118C118.596 66.6118 118.396 65.9118 117.396 65.3118ZM135.996 65.6118C135.996 65.1118 135.296 64.6118 134.496 64.6118C133.696 64.6118 132.996 65.1118 132.996 65.6118C132.996 66.2118 133.696 66.6118 134.496 66.6118C135.296 66.6118 135.996 66.2118 135.996 65.6118ZM129.396 45.4118C130.296 41.8119 130.096 40.9118 128.196 40.4118C126.696 40.0118 126.496 40.5118 126.796 43.8118C127.296 48.0118 128.396 48.8119 129.396 45.4118Z" fill="#2D337F"/>
<path d="M91.2957 96.012C58.1957 92.012 30.1957 82.112 16.7957 69.712C9.4957 63.012 6.5957 57.812 6.5957 51.112C6.5957 29.712 43.4957 11.212 97.0957 5.61199C119.296 3.31199 152.196 4.41199 174.496 8.11199C209.396 14.012 236.496 27.212 244.296 42.012C253.796 60.512 232.596 80.012 191.296 90.612C182.096 92.912 168.996 95.212 156.496 96.612C143.896 98.012 104.696 97.712 91.2957 96.012ZM159.796 92.012C167.196 91.212 176.796 89.712 181.296 88.812C189.496 87.112 189.496 87.112 185.296 82.712C180.996 78.312 180.996 78.312 180.996 81.212C180.996 86.212 176.896 88.312 173.596 85.012C171.396 82.812 171.296 67.012 173.596 63.812C176.196 60.012 179.796 61.412 180.896 66.712C181.596 70.012 181.596 70.012 183.796 66.412C186.396 62.212 188.396 61.212 191.096 62.612C193.296 63.912 193.596 67.812 191.496 69.612C188.696 71.912 188.696 74.512 191.496 77.812C193.496 80.212 193.996 81.712 193.596 83.712C193.096 86.512 193.096 86.512 198.296 84.912C213.396 80.512 227.396 73.712 234.596 67.312C239.196 63.212 243.996 55.012 243.996 51.112C243.996 40.312 232.796 29.412 213.596 21.612C161.296 0.411987 72.1957 2.71199 28.9957 26.412C20.4957 31.112 11.7957 39.812 10.1957 45.212C8.4957 50.912 8.6957 52.412 11.3957 58.212C18.6957 73.912 49.8957 87.012 91.9957 92.012C108.196 93.912 143.396 94.012 159.796 92.012ZM175.996 83.212C175.196 82.112 174.896 78.812 175.096 72.712C175.296 67.812 175.196 64.312 174.796 64.912C173.396 67.012 173.896 84.412 175.296 84.912C177.096 85.512 177.396 84.812 175.996 83.212ZM190.996 85.312C190.996 85.112 188.896 82.712 186.396 80.012C183.796 77.312 182.096 75.812 182.496 76.612C184.996 81.212 190.996 87.412 190.996 85.312ZM185.796 67.912C189.196 63.112 189.196 63.112 185.096 67.512C182.796 69.912 180.996 72.312 180.996 72.812C180.996 74.412 182.396 73.012 185.796 67.912Z" fill="#FDFDFB"/>
<path d="M74.5955 85.1118C72.4955 83.0118 71.7955 78.2118 72.1955 69.7118C72.4955 62.7118 72.3955 62.5118 69.9955 62.0118C65.8955 61.2118 64.4955 60.0118 64.1955 57.4118C63.5955 52.4118 65.9955 51.5118 78.7955 51.8118C90.0955 52.1118 90.4955 52.2118 91.6955 54.6118C93.3955 58.0118 91.3955 61.0118 87.0955 61.4118C83.9955 61.7118 83.9955 61.7118 83.9955 72.2118C83.9955 81.3118 83.6955 82.9118 81.9955 84.6118C79.5955 87.0118 76.6955 87.2118 74.5955 85.1118ZM78.9955 83.7118C78.9955 83.2118 78.2955 82.6118 77.4955 82.3118C76.3955 81.8118 75.9955 79.3118 75.6955 71.4118C75.3955 61.1118 75.3955 61.1118 75.1955 72.2118C75.0955 78.3118 75.2955 83.6118 75.6955 83.9118C76.5955 84.9118 78.9955 84.7118 78.9955 83.7118ZM72.9955 59.7118C72.9955 59.2118 71.7955 58.6118 70.2955 58.4118C68.1955 58.2118 67.5955 57.6118 67.7955 56.1118C67.9955 54.2118 67.9955 54.2118 66.8955 55.9118C66.0955 57.2118 66.1955 58.1118 66.9955 59.2118C68.3955 60.7118 72.9955 61.1118 72.9955 59.7118ZM88.9955 59.6118C89.7955 59.1118 90.1955 58.5118 89.9955 58.3118C89.1955 57.5118 82.9955 58.8118 82.9955 59.7118C82.9955 60.9118 87.0955 60.8118 88.9955 59.6118Z" fill="#FDFDFB"/>
<path d="M93.1956 85.4119C92.3956 84.6119 91.9956 80.6119 91.9956 74.0119C91.9956 62.5119 92.9956 60.4119 97.4956 62.4119C99.8956 63.5119 99.9956 63.9119 99.9956 73.9119C99.9956 84.4119 99.2956 86.6119 95.9956 86.6119C95.0956 86.6119 93.8956 86.1119 93.1956 85.4119ZM96.1956 83.8119C95.3956 83.6119 94.9956 80.2119 94.8956 73.3119C94.8956 66.7119 94.5956 63.8119 93.9956 65.1119C92.7956 68.0119 92.7956 81.4119 94.0956 83.7119C94.5956 84.8119 95.5956 85.3119 96.2956 84.9119C97.0956 84.4119 97.0956 84.1119 96.1956 83.8119Z" fill="#FDFDFB"/>
<path d="M104.196 85.4118C102.196 83.4118 102.796 81.2118 107.096 75.5118C111.096 70.1118 111.096 70.1118 108.296 69.8118C104.796 69.3118 102.996 67.9118 102.996 65.5118C102.996 62.8118 106.096 61.6118 113.296 61.6118C118.196 61.6118 120.396 62.1118 122.096 63.5118C124.396 65.4118 124.396 65.4118 120.496 71.2118C115.396 78.7118 115.396 78.6118 117.996 78.6118C121.096 78.6118 123.996 80.4118 123.996 82.4118C123.996 85.7118 121.796 86.6118 113.496 86.6118C108.496 86.6118 104.896 86.1118 104.196 85.4118ZM119.296 83.9118C117.496 83.7118 114.496 83.7118 112.796 83.9118C110.996 84.1118 112.396 84.3118 115.996 84.3118C119.596 84.3118 120.996 84.1118 119.296 83.9118ZM109.896 76.4118C112.096 73.3118 113.996 70.1118 113.996 69.5118C113.996 68.8118 111.796 71.5118 108.996 75.4118C106.296 79.3118 103.996 82.9118 103.996 83.3118C103.996 84.3118 104.996 83.1118 109.896 76.4118ZM108.796 66.9118C105.896 66.6118 105.196 66.1118 105.596 64.8118C106.096 63.4118 105.996 63.4118 105.196 64.6118C103.596 66.7118 104.696 67.6118 108.796 67.4118C112.496 67.3118 112.496 67.3118 108.796 66.9118Z" fill="#FDFDFB"/>
<path d="M127.396 84.1118C125.996 82.0118 125.796 80.0118 126.296 72.8118C126.996 62.9118 127.996 61.6118 134.396 61.6118C140.196 61.6118 142.796 62.5118 143.496 64.8118C144.396 67.6118 142.296 69.6118 138.396 69.6118C134.096 69.6118 133.996 71.4118 138.296 71.8118C142.896 72.2118 142.796 75.7118 137.996 77.3118C134.596 78.5118 134.596 78.5118 137.296 78.5118C141.196 78.6118 143.996 80.3118 143.996 82.6118C143.996 85.3118 140.996 86.6118 134.596 86.6118C129.796 86.6118 128.796 86.3118 127.396 84.1118ZM140.296 83.9118C138.996 83.7118 136.796 83.7118 135.296 83.9118C133.696 84.1118 134.796 84.3118 137.496 84.3118C140.296 84.3118 141.496 84.1118 140.296 83.9118ZM129.696 75.1118C129.696 70.4118 129.296 66.6118 128.796 66.6118C128.396 66.6118 127.996 70.4118 127.996 75.1118C127.996 79.8118 128.396 83.6118 128.896 83.6118C129.396 83.6118 129.796 79.8118 129.696 75.1118Z" fill="#FDFDFB"/>
<path d="M151.996 85.3118C148.596 83.6118 144.996 77.9118 144.996 74.3118C144.996 70.4118 148.396 64.9118 151.996 63.1118C158.896 59.5118 169.496 63.1118 169.496 69.0118C169.496 73.4118 166.796 74.5118 163.096 71.8118C158.296 68.3118 153.996 69.4118 153.996 74.1118C153.996 78.5118 158.596 80.0118 162.796 77.0118C168.896 72.8118 172.696 79.1118 166.996 84.0118C163.496 86.9118 156.496 87.6118 151.996 85.3118ZM163.696 84.8118C164.396 84.3118 162.596 84.0118 159.596 84.0118C155.196 84.1118 153.696 83.6118 151.596 81.7118C148.196 78.5118 147.396 73.7118 149.396 69.8118C151.596 65.5118 151.396 64.5118 148.996 68.1118C146.796 71.4118 146.396 76.6118 148.096 79.7118C150.396 84.2118 159.896 87.2118 163.696 84.8118ZM165.996 70.1118C159.596 66.4118 159.096 66.3118 156.796 67.4118C154.696 68.4118 154.696 68.5118 157.996 68.6118C159.896 68.6118 162.396 69.3118 163.396 70.1118C164.496 70.9118 166.096 71.6118 166.896 71.6118C167.896 71.6118 167.596 71.0118 165.996 70.1118Z" fill="#FDFDFB"/>
<path d="M123.796 55.6122C120.696 52.7122 120.196 49.1122 122.596 46.5122C123.996 44.9122 123.996 44.4122 122.096 40.7122C119.296 35.3122 117.396 23.2122 118.596 18.2122C119.796 13.0122 123.896 9.81219 127.596 11.2122C132.496 12.9122 134.496 16.9122 134.896 25.9122C135.396 37.6122 132.396 52.9122 128.996 56.0122C126.496 58.2122 126.496 58.2122 123.796 55.6122ZM133.396 36.0122C133.696 35.1122 133.996 31.3122 133.996 27.5122C133.996 21.9122 133.596 20.2122 131.996 18.6122C129.796 16.4122 126.896 16.0122 123.996 17.6122C121.596 18.9122 119.596 25.9122 120.496 30.3122C120.996 33.2122 121.296 33.6122 122.596 32.5122C123.896 31.4122 124.596 31.8122 127.096 34.4122C130.396 37.9122 132.496 38.4122 133.396 36.0122Z" fill="#FDFDFB"/>
<path d="M133.996 52.7119C133.996 51.0119 147.496 39.6119 152.396 37.1119C158.396 34.1119 162.296 33.9119 164.996 36.6119C167.396 39.0119 167.396 39.5119 165.496 42.3119C162.696 46.3119 157.496 48.6119 148.996 49.7119C144.396 50.2119 139.396 51.4119 137.896 52.1119C134.596 53.8119 133.996 53.9119 133.996 52.7119ZM160.596 44.8119C162.496 43.6119 163.296 39.6119 161.996 38.1119C161.296 37.3119 159.696 36.6119 158.296 36.6119C155.096 36.6119 147.796 40.4119 148.196 41.8119C148.996 44.2119 158.196 46.4119 160.596 44.8119Z" fill="#FDFDFB"/>
<path d="M96.8956 46.7118C89.8956 46.1118 85.9956 44.6118 85.9956 42.5118C85.9956 40.7118 90.0956 37.6118 92.4956 37.6118C95.6956 37.6118 100.696 40.0118 104.296 43.4118C107.196 46.2118 107.796 47.7118 105.796 47.4118C105.096 47.3118 101.096 47.0118 96.8956 46.7118ZM94.7956 44.4118C96.4956 42.7118 96.2956 38.6118 94.5956 38.6118C92.1956 38.6118 88.5956 42.2118 89.2956 43.9118C89.9956 45.9118 93.0956 46.1118 94.7956 44.4118Z" fill="#FDFDFB"/>
<path d="M114.696 44.1121C113.696 42.7121 110.696 40.5121 108.096 39.1121C102.796 36.5121 96.2956 29.6121 95.2956 25.7121C93.8956 20.2121 99.2956 18.0121 104.996 21.8121C109.696 25.0121 113.496 30.9121 115.496 38.0121C116.496 41.3121 117.396 44.6121 117.696 45.3121C118.596 47.5121 116.596 46.7121 114.696 44.1121ZM106.996 33.7121C106.996 32.6121 107.696 31.0121 108.496 30.2121C110.596 28.1121 109.096 25.3121 104.996 23.6121C102.196 22.4121 101.596 22.5121 99.8956 24.3121C98.2956 25.9121 98.0956 26.7121 98.8956 28.8121C100.896 34.1121 106.996 37.7121 106.996 33.7121Z" fill="#FDFDFB"/>
<path d="M140.696 35.912C139.496 34.812 139.996 28.612 141.396 25.812C144.096 20.612 151.896 18.912 154.396 22.812C155.996 25.312 154.296 27.612 148.496 30.812C145.796 32.212 143.096 34.112 142.396 35.012C141.796 35.912 140.996 36.312 140.696 35.912ZM148.296 28.512C149.796 30.012 151.996 28.012 151.996 25.112C151.996 22.412 149.796 21.312 146.696 22.512C143.596 23.712 141.596 26.212 142.396 28.112C142.896 29.412 143.396 29.512 145.096 28.612C146.596 27.712 147.496 27.712 148.296 28.512Z" fill="#FDFDFB"/>
</svg>
